<mxfile host="app.diagrams.net" modified="2022-06-25T16:36:59.509Z" agent="5.0 (Windows NT 10.0; Win64; x64) AppleWebKit/537.36 (KHTML, like Gecko) Chrome/102.0.0.0 Safari/537.36" etag="_691T_JYn-LblrUxrp_O" version="20.0.3" type="github">
  <diagram id="KZGV3ZOp9gYFbGEhSCay" name="编译器">
    <mxGraphModel dx="848" dy="570" grid="1" gridSize="10" guides="1" tooltips="1" connect="1" arrows="1" fold="1" page="1" pageScale="1" pageWidth="827" pageHeight="1169" math="0" shadow="0">
      <root>
        <mxCell id="0" />
        <mxCell id="1" parent="0" />
        <mxCell id="51KBsvvsSlcM69wua955-40" value="" style="rounded=0;whiteSpace=wrap;html=1;shadow=1;opacity=21;dashed=1;fixDash=0;" vertex="1" parent="1">
          <mxGeometry x="105" y="610" width="505" height="100" as="geometry" />
        </mxCell>
        <mxCell id="51KBsvvsSlcM69wua955-13" value="" style="rounded=0;whiteSpace=wrap;html=1;shadow=1;opacity=21;dashed=1;fixDash=0;" vertex="1" parent="1">
          <mxGeometry x="130" y="340" width="550" height="80" as="geometry" />
        </mxCell>
        <mxCell id="51KBsvvsSlcM69wua955-3" value="Compiler&lt;br&gt;" style="text;html=1;align=center;verticalAlign=middle;resizable=0;points=[];autosize=1;strokeColor=none;fillColor=none;" vertex="1" parent="1">
          <mxGeometry x="370" y="270" width="70" height="30" as="geometry" />
        </mxCell>
        <mxCell id="51KBsvvsSlcM69wua955-4" value="源代码" style="whiteSpace=wrap;html=1;" vertex="1" parent="1">
          <mxGeometry x="40" y="360" width="80" height="40" as="geometry" />
        </mxCell>
        <mxCell id="51KBsvvsSlcM69wua955-5" value="词法分析" style="whiteSpace=wrap;html=1;" vertex="1" parent="1">
          <mxGeometry x="140" y="360" width="80" height="40" as="geometry" />
        </mxCell>
        <mxCell id="51KBsvvsSlcM69wua955-6" value="语法分析" style="whiteSpace=wrap;html=1;" vertex="1" parent="1">
          <mxGeometry x="230" y="360" width="80" height="40" as="geometry" />
        </mxCell>
        <mxCell id="51KBsvvsSlcM69wua955-7" value="语义分析" style="whiteSpace=wrap;html=1;" vertex="1" parent="1">
          <mxGeometry x="320" y="360" width="80" height="40" as="geometry" />
        </mxCell>
        <mxCell id="51KBsvvsSlcM69wua955-8" value="中间代码生成" style="whiteSpace=wrap;html=1;" vertex="1" parent="1">
          <mxGeometry x="410" y="360" width="80" height="40" as="geometry" />
        </mxCell>
        <mxCell id="51KBsvvsSlcM69wua955-9" value="优化" style="whiteSpace=wrap;html=1;" vertex="1" parent="1">
          <mxGeometry x="500" y="360" width="80" height="40" as="geometry" />
        </mxCell>
        <mxCell id="51KBsvvsSlcM69wua955-10" value="目标代码生成" style="whiteSpace=wrap;html=1;" vertex="1" parent="1">
          <mxGeometry x="590" y="360" width="80" height="40" as="geometry" />
        </mxCell>
        <mxCell id="51KBsvvsSlcM69wua955-11" value="目标代码" style="whiteSpace=wrap;html=1;" vertex="1" parent="1">
          <mxGeometry x="690" y="360" width="80" height="40" as="geometry" />
        </mxCell>
        <mxCell id="51KBsvvsSlcM69wua955-15" value="" style="shape=curlyBracket;whiteSpace=wrap;html=1;rounded=1;flipH=1;shadow=1;opacity=21;direction=north;size=0.5;" vertex="1" parent="1">
          <mxGeometry x="140" y="410" width="260" height="60" as="geometry" />
        </mxCell>
        <mxCell id="51KBsvvsSlcM69wua955-16" value="" style="shape=curlyBracket;whiteSpace=wrap;html=1;rounded=1;flipH=1;shadow=1;opacity=21;direction=north;size=0.5;" vertex="1" parent="1">
          <mxGeometry x="410" y="410" width="260" height="60" as="geometry" />
        </mxCell>
        <mxCell id="51KBsvvsSlcM69wua955-17" value="编译前端" style="text;html=1;align=center;verticalAlign=middle;resizable=0;points=[];autosize=1;strokeColor=none;fillColor=none;" vertex="1" parent="1">
          <mxGeometry x="235" y="470" width="70" height="30" as="geometry" />
        </mxCell>
        <mxCell id="51KBsvvsSlcM69wua955-18" value="编译后端" style="text;html=1;align=center;verticalAlign=middle;resizable=0;points=[];autosize=1;strokeColor=none;fillColor=none;" vertex="1" parent="1">
          <mxGeometry x="505" y="470" width="70" height="30" as="geometry" />
        </mxCell>
        <mxCell id="51KBsvvsSlcM69wua955-27" value="Vue.js Compiler" style="text;html=1;align=center;verticalAlign=middle;resizable=0;points=[];autosize=1;strokeColor=none;fillColor=none;" vertex="1" parent="1">
          <mxGeometry x="325" y="555" width="110" height="30" as="geometry" />
        </mxCell>
        <mxCell id="51KBsvvsSlcM69wua955-28" value="源代码" style="whiteSpace=wrap;html=1;" vertex="1" parent="1">
          <mxGeometry x="40" y="650" width="60" height="30" as="geometry" />
        </mxCell>
        <mxCell id="51KBsvvsSlcM69wua955-30" value="词法分析" style="whiteSpace=wrap;html=1;" vertex="1" parent="1">
          <mxGeometry x="120" y="650" width="60" height="30" as="geometry" />
        </mxCell>
        <mxCell id="51KBsvvsSlcM69wua955-31" value="语法分析" style="whiteSpace=wrap;html=1;" vertex="1" parent="1">
          <mxGeometry x="190" y="650" width="60" height="30" as="geometry" />
        </mxCell>
        <mxCell id="51KBsvvsSlcM69wua955-32" value="模板 AST" style="whiteSpace=wrap;html=1;" vertex="1" parent="1">
          <mxGeometry x="260" y="650" width="60" height="30" as="geometry" />
        </mxCell>
        <mxCell id="51KBsvvsSlcM69wua955-35" value="Transformer" style="shape=cube;whiteSpace=wrap;html=1;boundedLbl=1;backgroundOutline=1;darkOpacity=0.05;darkOpacity2=0.1;rounded=0;shadow=1;opacity=21;direction=east;fillColor=#dae8fc;strokeColor=#6c8ebf;" vertex="1" parent="1">
          <mxGeometry x="330" y="630" width="100" height="60.63" as="geometry" />
        </mxCell>
        <mxCell id="51KBsvvsSlcM69wua955-37" value="JavaScript AST" style="whiteSpace=wrap;html=1;" vertex="1" parent="1">
          <mxGeometry x="440" y="650" width="90" height="30" as="geometry" />
        </mxCell>
        <mxCell id="51KBsvvsSlcM69wua955-38" value="代码生成" style="whiteSpace=wrap;html=1;" vertex="1" parent="1">
          <mxGeometry x="540" y="650" width="60" height="30" as="geometry" />
        </mxCell>
        <mxCell id="51KBsvvsSlcM69wua955-39" value="渲染函数" style="whiteSpace=wrap;html=1;" vertex="1" parent="1">
          <mxGeometry x="620" y="650" width="60" height="30" as="geometry" />
        </mxCell>
      </root>
    </mxGraphModel>
  </diagram>
</mxfile>
